<svg xmlns="http://www.w3.org/2000/svg" width="20" height="21" viewBox="0 0 20 21" fill="none">
  <path d="M14.4132 10.7133L8.16325 16.9633C7.98713 17.1394 7.74826 17.2384 7.49918 17.2384C7.25011 17.2384 7.01124 17.1394 6.83512 16.9633C6.659 16.7872 6.56006 16.5483 6.56006 16.2992C6.56006 16.0502 6.659 15.8113 6.83512 15.6352L12.4218 10.05L6.83668 4.4633C6.74948 4.37609 6.6803 4.27256 6.63311 4.15862C6.58591 4.04468 6.56162 3.92256 6.56162 3.79923C6.56162 3.67591 6.58591 3.55379 6.63311 3.43985C6.6803 3.32591 6.74948 3.22238 6.83668 3.13517C6.92389 3.04797 7.02742 2.97879 7.14136 2.93159C7.2553 2.8844 7.37742 2.86011 7.50075 2.86011C7.62408 2.86011 7.7462 2.8844 7.86014 2.93159C7.97408 2.97879 8.0776 3.04797 8.16481 3.13517L14.4148 9.38517C14.5021 9.47237 14.5713 9.57595 14.6185 9.68996C14.6657 9.80397 14.6899 9.92617 14.6898 10.0496C14.6896 10.1729 14.6651 10.2951 14.6177 10.409C14.5702 10.5229 14.5007 10.6263 14.4132 10.7133Z" fill="white"/>
</svg>