<svg xmlns="http://www.w3.org/2000/svg" width="20" height="21" viewBox="0 0 20 21" fill="none">
  <path d="M14.4132 11.2227L8.16325 17.4727C7.98713 17.6488 7.74826 17.7478 7.49918 17.7478C7.25011 17.7478 7.01124 17.6488 6.83512 17.4727C6.659 17.2966 6.56006 17.0577 6.56006 16.8086C6.56006 16.5596 6.659 16.3207 6.83512 16.1446L12.4218 10.5594L6.83668 4.9727C6.74948 4.88549 6.6803 4.78196 6.63311 4.66802C6.58591 4.55408 6.56162 4.43196 6.56162 4.30863C6.56162 4.18531 6.58591 4.06318 6.63311 3.94924C6.6803 3.8353 6.74948 3.73178 6.83668 3.64457C6.92389 3.55736 7.02742 3.48819 7.14136 3.44099C7.2553 3.3938 7.37742 3.36951 7.50075 3.36951C7.62408 3.36951 7.7462 3.3938 7.86014 3.44099C7.97408 3.48819 8.0776 3.55736 8.16481 3.64457L14.4148 9.89457C14.5021 9.98177 14.5713 10.0853 14.6185 10.1994C14.6657 10.3134 14.6899 10.4356 14.6898 10.559C14.6896 10.6823 14.6651 10.8045 14.6177 10.9184C14.5702 11.0323 14.5007 11.1357 14.4132 11.2227Z" fill="#0473EA"/>
</svg>