<svg xmlns="http://www.w3.org/2000/svg" width="20" height="21" viewBox="0 0 20 21" fill="none">
  <path d="M10 1.92505C7.84512 1.92505 5.77849 2.78107 4.25476 4.30481C2.73102 5.82854 1.875 7.89516 1.875 10.05C1.875 12.2049 2.73102 14.2716 4.25476 15.7953C5.77849 17.319 7.84512 18.175 10 18.175C11.6805 18.175 13.4453 17.6688 14.7211 16.8211C14.7895 16.7757 14.8482 16.7172 14.894 16.6491C14.9398 16.5809 14.9717 16.5044 14.9879 16.4239C15.0041 16.3434 15.0043 16.2605 14.9885 16.18C14.9727 16.0994 14.9412 16.0227 14.8957 15.9543C14.8503 15.886 14.7918 15.8272 14.7236 15.7814C14.6555 15.7356 14.579 15.7037 14.4985 15.6875C14.418 15.6713 14.3351 15.6711 14.2545 15.6869C14.1739 15.7028 14.0973 15.7343 14.0289 15.7797C12.9688 16.486 11.4227 16.925 10 16.925C8.64025 16.925 7.31104 16.5218 6.18045 15.7664C5.04987 15.011 4.16868 13.9372 3.64833 12.681C3.12798 11.4248 2.99183 10.0424 3.2571 8.7088C3.52237 7.37518 4.17716 6.15018 5.13864 5.18869C6.10013 4.2272 7.32513 3.57242 8.65875 3.30715C9.99237 3.04188 11.3747 3.17802 12.6309 3.69838C13.8872 4.21873 14.9609 5.09992 15.7164 6.2305C16.4718 7.36109 16.875 8.6903 16.875 10.05C16.875 12.1165 16.025 12.55 15.3125 12.55C14.6 12.55 13.75 12.1165 13.75 10.05V6.92505C13.75 6.75929 13.6842 6.60032 13.5669 6.48311C13.4497 6.3659 13.2908 6.30005 13.125 6.30005C12.9592 6.30005 12.8003 6.3659 12.6831 6.48311C12.5658 6.60032 12.5 6.75929 12.5 6.92505V7.25786C11.9391 6.75499 11.2398 6.4327 10.4931 6.33297C9.74647 6.23324 8.98707 6.36069 8.31388 6.69873C7.64069 7.03677 7.08491 7.56971 6.71894 8.22814C6.35298 8.88657 6.19379 9.63995 6.26213 10.3901C6.33046 11.1403 6.62315 11.8526 7.10206 12.434C7.58097 13.0155 8.2239 13.4392 8.94709 13.6501C9.67028 13.8609 10.4402 13.8491 11.1566 13.6161C11.8729 13.3831 12.5025 12.9397 12.9633 12.3438C13.432 13.2813 14.2406 13.8 15.3125 13.8C17.0734 13.8 18.125 12.3985 18.125 10.05C18.1227 7.89586 17.266 5.83056 15.7427 4.30732C14.2195 2.78408 12.1542 1.92732 10 1.92505ZM10 12.55C9.50555 12.55 9.0222 12.4034 8.61107 12.1287C8.19995 11.854 7.87952 11.4636 7.6903 11.0068C7.50108 10.5499 7.45157 10.0473 7.54804 9.56232C7.6445 9.07737 7.8826 8.63191 8.23223 8.28228C8.58186 7.93265 9.02732 7.69455 9.51227 7.59809C9.99723 7.50162 10.4999 7.55113 10.9567 7.74035C11.4135 7.92957 11.804 8.25 12.0787 8.66112C12.3534 9.07225 12.5 9.5556 12.5 10.05C12.5 10.7131 12.2366 11.349 11.7678 11.8178C11.2989 12.2867 10.663 12.55 10 12.55Z" fill="white" fill-opacity="0.7"/>
</svg>