<svg xmlns="http://www.w3.org/2000/svg" width="20" height="21" viewBox="0 0 20 21" fill="none">
  <path d="M17.3727 12.4297L13.6922 10.7805L13.682 10.7758C13.491 10.6941 13.2825 10.6613 13.0756 10.6804C12.8687 10.6995 12.6698 10.7699 12.4969 10.8852C12.4765 10.8986 12.457 10.9133 12.4383 10.9289L10.5367 12.55C9.33204 11.9649 8.08829 10.7305 7.50313 9.54145L9.12657 7.61098C9.14219 7.59145 9.15704 7.57192 9.1711 7.55083C9.28394 7.3784 9.35239 7.18076 9.37039 6.97549C9.38838 6.77022 9.35534 6.56368 9.27423 6.37426V6.36489L7.62032 2.67817C7.51309 2.43072 7.3287 2.22459 7.09468 2.09054C6.86067 1.9565 6.58958 1.90173 6.32188 1.93442C5.26326 2.07372 4.29155 2.59361 3.58824 3.39699C2.88492 4.20037 2.49809 5.2323 2.50001 6.30004C2.50001 12.5032 7.54688 17.55 13.75 17.55C14.8177 17.552 15.8497 17.1651 16.6531 16.4618C17.4564 15.7585 17.9763 14.7868 18.1156 13.7282C18.1484 13.4606 18.0937 13.1895 17.9598 12.9555C17.8259 12.7215 17.62 12.5371 17.3727 12.4297ZM13.75 16.3C11.0987 16.2971 8.55687 15.2426 6.68214 13.3679C4.8074 11.4932 3.7529 8.95132 3.75001 6.30004C3.74707 5.53714 4.02192 4.79926 4.52324 4.22419C5.02456 3.64912 5.71806 3.27619 6.47423 3.17504C6.47392 3.17816 6.47392 3.1813 6.47423 3.18442L8.11485 6.85629L6.50001 8.78911C6.48362 8.80797 6.46873 8.82808 6.45548 8.84926C6.33791 9.02967 6.26894 9.23738 6.25525 9.45228C6.24157 9.66717 6.28362 9.88196 6.37735 10.0758C7.08516 11.5235 8.54376 12.9711 10.007 13.6782C10.2023 13.771 10.4184 13.8116 10.634 13.796C10.8497 13.7804 11.0576 13.7091 11.2375 13.5891C11.2576 13.5756 11.2769 13.561 11.2953 13.5454L13.1945 11.925L16.8664 13.5696C16.8664 13.5696 16.8727 13.5696 16.875 13.5696C16.7751 14.3268 16.4027 15.0217 15.8275 15.5243C15.2524 16.0268 14.5138 16.3026 13.75 16.3Z" fill="white" fill-opacity="0.7"/>
</svg>